<svg xmlns="http://www.w3.org/2000/svg" viewBox="0 0 128 128">
  <defs>
    <linearGradient id="g" x1="0" y1="0" x2="1" y2="1">
      <stop offset="0%" stop-color="#1a5fb4"/>
      <stop offset="100%" stop-color="#3584e4"/>
    </linearGradient>
  </defs>
  <!-- Circle background -->
  <circle cx="64" cy="64" r="60" fill="url(#g)"/>
  <!-- Aircraft seen from above -->
  <!-- Fuselage -->
  <path d="M64 18 C60 18 58 22 58 28 L58 72 C58 76 60 80 64 82 C68 80 70 76 70 72 L70 28 C70 22 68 18 64 18Z" fill="white"/>
  <!-- Wings -->
  <path d="M58 48 L22 62 C20 63 20 66 22 66 L58 58Z" fill="white" opacity="0.95"/>
  <path d="M70 48 L106 62 C108 63 108 66 106 66 L70 58Z" fill="white" opacity="0.95"/>
  <!-- Tail wings -->
  <path d="M58 72 L42 80 C40 81 40 84 42 84 L58 78Z" fill="white" opacity="0.9"/>
  <path d="M70 72 L86 80 C88 81 88 84 86 84 L70 78Z" fill="white" opacity="0.9"/>
  <!-- Cockpit window -->
  <ellipse cx="64" cy="28" rx="3" ry="5" fill="#1a5fb4" opacity="0.6"/>
  <!-- Contrails -->
  <line x1="44" y1="84" x2="38" y2="108" stroke="white" stroke-width="2" stroke-linecap="round" opacity="0.4"/>
  <line x1="84" y1="84" x2="90" y2="108" stroke="white" stroke-width="2" stroke-linecap="round" opacity="0.4"/>
</svg>
