<svg xmlns="http://www.w3.org/2000/svg" viewBox="0 0 1440 720" width="1440" height="720">
  <defs>
    <linearGradient id="hwBg" x1="0" y1="0" x2="0" y2="1">
      <stop offset="0%" stop-color="#0e0e16"/>
      <stop offset="100%" stop-color="#14141e"/>
    </linearGradient>
    <linearGradient id="desk" x1="0" y1="0" x2="0" y2="1">
      <stop offset="0%" stop-color="#1a1a22"/>
      <stop offset="100%" stop-color="#111118"/>
    </linearGradient>
  </defs>
  <rect width="1440" height="720" fill="url(#hwBg)"/>

  <!-- Desk surface -->
  <rect x="0" y="380" width="1440" height="340" fill="url(#desk)" stroke="#333" stroke-width="1"/>

  <!-- Joystick (left side) -->
  <!-- Base -->
  <ellipse cx="360" cy="560" rx="120" ry="30" fill="#222233" stroke="#444" stroke-width="1.5"/>
  <rect x="240" y="530" width="240" height="30" rx="4" fill="#222233" stroke="#444" stroke-width="1"/>
  <!-- Stick -->
  <rect x="348" y="400" width="24" height="140" rx="6" fill="#2a2a3a" stroke="#555" stroke-width="1"/>
  <!-- Grip -->
  <rect x="340" y="340" width="40" height="70" rx="8" fill="#333344" stroke="#555" stroke-width="1.5"/>
  <!-- Trigger -->
  <rect x="340" y="370" width="8" height="20" rx="2" fill="#444455"/>
  <!-- Hat switch -->
  <circle cx="360" cy="350" r="8" fill="#444" stroke="#666" stroke-width="1"/>
  <circle cx="360" cy="350" r="4" fill="#555"/>
  <!-- Buttons -->
  <circle cx="350" y="358" r="3" fill="#ff3333" opacity="0.8"/>
  <circle cx="370" y="358" r="3" fill="#33ff33" opacity="0.8"/>
  <!-- Label -->
  <text x="360" y="610" fill="#888899" font-family="monospace" font-size="14" text-anchor="middle" font-weight="bold">JOYSTICK</text>
  <text x="360" y="630" fill="#555566" font-family="monospace" font-size="11" text-anchor="middle">Thrustmaster T16000M</text>

  <!-- Throttle (center) -->
  <!-- Base -->
  <ellipse cx="720" cy="560" rx="140" ry="30" fill="#222233" stroke="#444" stroke-width="1.5"/>
  <rect x="580" y="520" width="280" height="40" rx="4" fill="#222233" stroke="#444" stroke-width="1"/>
  <!-- Throttle levers -->
  <rect x="660" y="410" width="20" height="120" rx="4" fill="#333344" stroke="#555" stroke-width="1.5"/>
  <rect x="660" y="395" width="20" height="25" rx="6" fill="#444455" stroke="#666" stroke-width="1"/>
  <rect x="740" y="430" width="20" height="100" rx="4" fill="#333344" stroke="#555" stroke-width="1.5"/>
  <rect x="740" y="415" width="20" height="25" rx="6" fill="#444455" stroke="#666" stroke-width="1"/>
  <!-- Buttons panel -->
  <rect x="620" y="460" width="30" height="50" rx="3" fill="#2a2a3a" stroke="#444" stroke-width="1"/>
  <circle cx="635" cy="475" r="4" fill="#ffaa00" opacity="0.8"/>
  <circle cx="635" cy="490" r="4" fill="#00aaff" opacity="0.8"/>
  <!-- Rocker switches -->
  <rect x="790" y="470" width="30" height="12" rx="2" fill="#444" stroke="#555" stroke-width="1"/>
  <rect x="790" y="490" width="30" height="12" rx="2" fill="#444" stroke="#555" stroke-width="1"/>
  <!-- Label -->
  <text x="720" y="610" fill="#888899" font-family="monospace" font-size="14" text-anchor="middle" font-weight="bold">THROTTLE</text>
  <text x="720" y="630" fill="#555566" font-family="monospace" font-size="11" text-anchor="middle">Thrustmaster TWCS</text>

  <!-- Yoke (right side) -->
  <!-- Base -->
  <ellipse cx="1080" cy="560" rx="140" ry="30" fill="#222233" stroke="#444" stroke-width="1.5"/>
  <rect x="940" y="520" width="280" height="40" rx="4" fill="#222233" stroke="#444" stroke-width="1"/>
  <!-- Column -->
  <rect x="1065" y="420" width="30" height="110" rx="4" fill="#2a2a3a" stroke="#555" stroke-width="1"/>
  <!-- Yoke horns -->
  <rect x="980" y="390" width="200" height="40" rx="20" fill="#333344" stroke="#555" stroke-width="1.5"/>
  <!-- Grips -->
  <rect x="975" y="380" width="35" height="60" rx="10" fill="#3a3a4a" stroke="#555" stroke-width="1"/>
  <rect x="1150" y="380" width="35" height="60" rx="10" fill="#3a3a4a" stroke="#555" stroke-width="1"/>
  <!-- Buttons on yoke -->
  <circle cx="993" cy="400" r="5" fill="#ff3333" opacity="0.8"/>
  <circle cx="1168" cy="400" r="5" fill="#ff3333" opacity="0.8"/>
  <rect x="1040" y="395" width="80" height="12" rx="2" fill="#2a2a3a" stroke="#444" stroke-width="1"/>
  <!-- Label -->
  <text x="1080" y="610" fill="#888899" font-family="monospace" font-size="14" text-anchor="middle" font-weight="bold">YOKE</text>
  <text x="1080" y="630" fill="#555566" font-family="monospace" font-size="11" text-anchor="middle">Honeycomb Alpha</text>

  <!-- Rating cards at top -->
  <rect x="60" y="40" width="400" height="140" rx="6" fill="#0f0f1a" stroke="#00aa44" stroke-width="1.5"/>
  <text x="80" y="75" fill="#ffffff" font-family="monospace" font-size="16" font-weight="bold">Thrustmaster T16000M FCS</text>
  <text x="80" y="100" fill="#888899" font-family="monospace" font-size="12">Joystick + Throttle HOTAS Pack</text>
  <text x="80" y="125" fill="#00ff44" font-family="monospace" font-size="14">★★★★☆  8.2/10</text>
  <text x="80" y="150" fill="#555566" font-family="monospace" font-size="11">Best entry-level | Hall sensors | €89</text>
  <rect x="380" y="55" width="60" height="25" rx="4" fill="#002211" stroke="#00ff44" stroke-width="1"/>
  <text x="410" y="72" fill="#00ff44" font-family="monospace" font-size="11" text-anchor="middle">VALUE</text>

  <rect x="520" y="40" width="400" height="140" rx="6" fill="#0f0f1a" stroke="#ffcc00" stroke-width="1.5"/>
  <text x="540" y="75" fill="#ffffff" font-family="monospace" font-size="16" font-weight="bold">Honeycomb Alpha Yoke</text>
  <text x="540" y="100" fill="#888899" font-family="monospace" font-size="12">Flight Yoke + Switch Panel</text>
  <text x="540" y="125" fill="#ffcc00" font-family="monospace" font-size="14">★★★★★  9.4/10</text>
  <text x="540" y="150" fill="#555566" font-family="monospace" font-size="11">Premium build | Metal shaft | €299</text>
  <rect x="840" y="55" width="60" height="25" rx="4" fill="#1a1a00" stroke="#ffcc00" stroke-width="1"/>
  <text x="870" y="72" fill="#ffcc00" font-family="monospace" font-size="11" text-anchor="middle">BEST</text>

  <rect x="980" y="40" width="400" height="140" rx="6" fill="#0f0f1a" stroke="#0088cc" stroke-width="1.5"/>
  <text x="1000" y="75" fill="#ffffff" font-family="monospace" font-size="16" font-weight="bold">VKB Gladiator NXT EVO</text>
  <text x="1000" y="100" fill="#888899" font-family="monospace" font-size="12">Premium Joystick</text>
  <text x="1000" y="125" fill="#00aaff" font-family="monospace" font-size="14">★★★★★  9.1/10</text>
  <text x="1000" y="150" fill="#555566" font-family="monospace" font-size="11">Precision sensors | Modular | €179</text>
  <rect x="1300" y="55" width="60" height="25" rx="4" fill="#001122" stroke="#0088ff" stroke-width="1"/>
  <text x="1330" y="72" fill="#0088ff" font-family="monospace" font-size="11" text-anchor="middle">PRO</text>

  <!-- Comparison bar -->
  <rect x="60" y="210" width="1320" height="50" rx="4" fill="#0f0f1a" stroke="#334" stroke-width="1"/>
  <text x="100" y="240" fill="#666677" font-family="monospace" font-size="12">PRECISION</text>
  <rect x="200" y="228" width="200" height="10" rx="5" fill="#1a1a2e"/>
  <rect x="200" y="228" width="160" height="10" rx="5" fill="#00aa44"/>

  <text x="460" y="240" fill="#666677" font-family="monospace" font-size="12">BUILD</text>
  <rect x="530" y="228" width="200" height="10" rx="5" fill="#1a1a2e"/>
  <rect x="530" y="228" width="180" height="10" rx="5" fill="#ffcc00"/>

  <text x="790" y="240" fill="#666677" font-family="monospace" font-size="12">VALUE</text>
  <rect x="860" y="228" width="200" height="10" rx="5" fill="#1a1a2e"/>
  <rect x="860" y="228" width="170" height="10" rx="5" fill="#0088ff"/>

  <text x="1120" y="240" fill="#666677" font-family="monospace" font-size="12">IMMERSION</text>
  <rect x="1210" y="228" width="150" height="10" rx="5" fill="#1a1a2e"/>
  <rect x="1210" y="228" width="140" height="10" rx="5" fill="#ff6644"/>
</svg>
