<svg xmlns="http://www.w3.org/2000/svg" viewBox="0 0 800 400">
  <defs>
    <linearGradient id="sky" x1="0%" y1="0%" x2="0%" y2="100%">
      <stop offset="0%" style="stop-color:#1a8fe0"/>
      <stop offset="40%" style="stop-color:#5bb8f5"/>
      <stop offset="70%" style="stop-color:#a0d4f7"/>
      <stop offset="100%" style="stop-color:#d4eaf7"/>
    </linearGradient>
    <linearGradient id="runway" x1="0%" y1="0%" x2="100%" y2="0%">
      <stop offset="0%" style="stop-color:#3a3a3a"/>
      <stop offset="50%" style="stop-color:#4a4a4a"/>
      <stop offset="100%" style="stop-color:#3a3a3a"/>
    </linearGradient>
    <linearGradient id="sunGlow" x1="0%" y1="0%" x2="0%" y2="100%">
      <stop offset="0%" style="stop-color:#ffd97d;stop-opacity:0.6"/>
      <stop offset="100%" style="stop-color:#ffd97d;stop-opacity:0"/>
    </linearGradient>
    <linearGradient id="terminalGlass" x1="0%" y1="0%" x2="0%" y2="100%">
      <stop offset="0%" style="stop-color:#c8dff0"/>
      <stop offset="100%" style="stop-color:#8ab8d8"/>
    </linearGradient>
  </defs>
  <!-- Sky -->
  <rect width="800" height="400" fill="url(#sky)"/>
  <!-- Sun glow -->
  <circle cx="650" cy="80" r="120" fill="url(#sunGlow)"/>
  <circle cx="650" cy="80" r="30" fill="#fff4c4" opacity="0.9"/>
  <!-- Clouds -->
  <g opacity="0.85">
    <ellipse cx="120" cy="60" rx="70" ry="22" fill="white"/>
    <ellipse cx="160" cy="55" rx="50" ry="18" fill="white"/>
    <ellipse cx="90" cy="55" rx="40" ry="16" fill="white"/>
  </g>
  <g opacity="0.7">
    <ellipse cx="450" cy="45" rx="80" ry="20" fill="white"/>
    <ellipse cx="500" cy="40" rx="55" ry="16" fill="white"/>
    <ellipse cx="410" cy="40" rx="45" ry="14" fill="white"/>
  </g>
  <g opacity="0.5">
    <ellipse cx="300" cy="90" rx="55" ry="15" fill="white"/>
    <ellipse cx="340" cy="85" rx="40" ry="12" fill="white"/>
  </g>
  <g opacity="0.6">
    <ellipse cx="720" cy="55" rx="60" ry="18" fill="white"/>
    <ellipse cx="750" cy="50" rx="40" ry="14" fill="white"/>
  </g>
  <!-- Distant mountains/terrain -->
  <polygon points="0,220 60,180 130,200 200,170 280,195 350,160 420,185 500,155 560,175 630,150 700,170 770,158 800,175 800,240 0,240" fill="#6b8f71" opacity="0.4"/>
  <polygon points="0,230 80,200 150,215 230,190 310,210 390,185 470,205 540,180 620,200 700,185 800,195 800,240 0,240" fill="#5a7d5f" opacity="0.5"/>
  <!-- City skyline in background -->
  <g opacity="0.7">
    <!-- Buildings silhouettes -->
    <rect x="80" y="195" width="18" height="45" fill="#4a6a78" rx="1"/>
    <rect x="102" y="180" width="22" height="60" fill="#3d5c6a" rx="1"/>
    <rect x="128" y="190" width="16" height="50" fill="#4a6a78" rx="1"/>
    <rect x="148" y="170" width="20" height="70" fill="#3d5c6a" rx="1"/>
    <rect x="172" y="185" width="24" height="55" fill="#456878" rx="1"/>
    <rect x="200" y="165" width="14" height="75" fill="#3d5c6a" rx="1"/>
    <rect x="218" y="178" width="26" height="62" fill="#4a6a78" rx="1"/>
    <rect x="248" y="195" width="18" height="45" fill="#3d5c6a" rx="1"/>
    <rect x="270" y="172" width="20" height="68" fill="#456878" rx="1"/>
    <rect x="294" y="188" width="16" height="52" fill="#4a6a78" rx="1"/>
    <!-- Tall tower/spire -->
    <rect x="155" y="145" width="6" height="25" fill="#3d5c6a"/>
    <rect x="205" y="140" width="4" height="25" fill="#3d5c6a"/>
    <!-- Window lights on buildings -->
    <g fill="#e8f4ff" opacity="0.4">
      <rect x="106" y="186" width="3" height="3"/><rect x="113" y="186" width="3" height="3"/>
      <rect x="106" y="196" width="3" height="3"/><rect x="113" y="196" width="3" height="3"/>
      <rect x="106" y="206" width="3" height="3"/><rect x="113" y="206" width="3" height="3"/>
      <rect x="152" y="178" width="3" height="3"/><rect x="159" y="178" width="3" height="3"/>
      <rect x="152" y="188" width="3" height="3"/><rect x="159" y="188" width="3" height="3"/>
      <rect x="152" y="198" width="3" height="3"/><rect x="159" y="198" width="3" height="3"/>
      <rect x="176" y="192" width="3" height="3"/><rect x="183" y="192" width="3" height="3"/>
      <rect x="176" y="202" width="3" height="3"/><rect x="183" y="202" width="3" height="3"/>
      <rect x="222" y="184" width="3" height="3"/><rect x="229" y="184" width="3" height="3"/>
      <rect x="222" y="194" width="3" height="3"/><rect x="229" y="194" width="3" height="3"/>
      <rect x="222" y="204" width="3" height="3"/><rect x="229" y="204" width="3" height="3"/>
      <rect x="274" y="180" width="3" height="3"/><rect x="281" y="180" width="3" height="3"/>
      <rect x="274" y="190" width="3" height="3"/><rect x="281" y="190" width="3" height="3"/>
    </g>
  </g>
  <!-- Ground / Airport area -->
  <rect x="0" y="240" width="800" height="160" fill="#5a8a3c"/>
  <!-- Grass texture lines -->
  <g stroke="#4d7832" stroke-width="0.5" opacity="0.3">
    <line x1="0" y1="260" x2="800" y2="260"/>
    <line x1="0" y1="280" x2="800" y2="280"/>
    <line x1="0" y1="300" x2="800" y2="300"/>
    <line x1="0" y1="320" x2="800" y2="320"/>
    <line x1="0" y1="340" x2="800" y2="340"/>
    <line x1="0" y1="360" x2="800" y2="360"/>
    <line x1="0" y1="380" x2="800" y2="380"/>
  </g>
  <!-- Main runway -->
  <rect x="50" y="290" width="700" height="30" fill="url(#runway)" rx="2"/>
  <!-- Runway center line markings -->
  <g fill="white" opacity="0.9">
    <rect x="80" y="303" width="30" height="4"/>
    <rect x="130" y="303" width="30" height="4"/>
    <rect x="180" y="303" width="30" height="4"/>
    <rect x="230" y="303" width="30" height="4"/>
    <rect x="280" y="303" width="30" height="4"/>
    <rect x="330" y="303" width="30" height="4"/>
    <rect x="380" y="303" width="30" height="4"/>
    <rect x="430" y="303" width="30" height="4"/>
    <rect x="480" y="303" width="30" height="4"/>
    <rect x="530" y="303" width="30" height="4"/>
    <rect x="580" y="303" width="30" height="4"/>
    <rect x="630" y="303" width="30" height="4"/>
    <rect x="680" y="303" width="30" height="4"/>
  </g>
  <!-- Runway threshold markings -->
  <g fill="white" opacity="0.8">
    <rect x="55" y="293" width="3" height="24"/>
    <rect x="61" y="293" width="3" height="24"/>
    <rect x="67" y="293" width="3" height="24"/>
    <rect x="73" y="293" width="3" height="24"/>
    <rect x="730" y="293" width="3" height="24"/>
    <rect x="736" y="293" width="3" height="24"/>
    <rect x="742" y="293" width="3" height="24"/>
  </g>
  <!-- Runway designation number -->
  <text x="65" y="312" font-family="Arial,sans-serif" font-size="10" font-weight="bold" fill="white" opacity="0.7">09L</text>
  <text x="725" y="312" font-family="Arial,sans-serif" font-size="10" font-weight="bold" fill="white" opacity="0.7">27R</text>
  <!-- Taxiway A -->
  <rect x="350" y="260" width="80" height="14" fill="#4a4a4a" rx="1"/>
  <rect x="385" y="248" width="12" height="12" fill="#4a4a4a"/>
  <!-- Taxiway B to terminal -->
  <rect x="400" y="322" width="14" height="40" fill="#4a4a4a" rx="1"/>
  <!-- Taxiway edge lines -->
  <line x1="350" y1="260" x2="430" y2="260" stroke="#d4a832" stroke-width="1" opacity="0.6"/>
  <line x1="350" y1="274" x2="430" y2="274" stroke="#d4a832" stroke-width="1" opacity="0.6"/>
  <line x1="400" y1="322" x2="400" y2="362" stroke="#d4a832" stroke-width="1" opacity="0.6"/>
  <line x1="414" y1="322" x2="414" y2="362" stroke="#d4a832" stroke-width="1" opacity="0.6"/>
  <!-- Terminal building -->
  <rect x="320" y="350" width="170" height="40" fill="#c8d8e4" rx="3" stroke="#a0b4c0" stroke-width="1"/>
  <!-- Terminal roof detail -->
  <rect x="325" y="348" width="160" height="6" fill="#b0c4d0" rx="2"/>
  <!-- Terminal glass facade -->
  <g fill="url(#terminalGlass)" opacity="0.6">
    <rect x="330" y="358" width="14" height="20" rx="1"/>
    <rect x="348" y="358" width="14" height="20" rx="1"/>
    <rect x="366" y="358" width="14" height="20" rx="1"/>
    <rect x="384" y="358" width="14" height="20" rx="1"/>
    <rect x="402" y="358" width="14" height="20" rx="1"/>
    <rect x="420" y="358" width="14" height="20" rx="1"/>
    <rect x="438" y="358" width="14" height="20" rx="1"/>
    <rect x="456" y="358" width="14" height="20" rx="1"/>
    <rect x="474" y="358" width="14" height="20" rx="1"/>
  </g>
  <!-- Terminal control tower -->
  <rect x="480" y="330" width="16" height="60" fill="#d0dce6" rx="1" stroke="#a0b4c0" stroke-width="0.5"/>
  <rect x="476" y="326" width="24" height="10" fill="#e0ecf5" rx="2" stroke="#a0b4c0" stroke-width="0.5"/>
  <rect x="478" y="328" width="20" height="6" fill="#87c5e8" rx="1" opacity="0.7"/>
  <!-- ATC tower light -->
  <circle cx="488" cy="324" r="2" fill="#ff6b6b" opacity="0.8"/>
  <!-- Jet bridges -->
  <g fill="#b0b8c0" stroke="#8a9aa6" stroke-width="0.5">
    <rect x="340" y="382" width="20" height="6" rx="1"/>
    <rect x="375" y="382" width="20" height="6" rx="1"/>
    <rect x="410" y="382" width="20" height="6" rx="1"/>
    <rect x="445" y="382" width="20" height="6" rx="1"/>
  </g>
  <!-- Parked aircraft at gates (top-down view) -->
  <g opacity="0.8">
    <!-- Aircraft 1 -->
    <ellipse cx="350" cy="395" rx="3" ry="10" fill="white" stroke="#888" stroke-width="0.5"/>
    <line x1="344" y1="393" x2="356" y2="393" stroke="#888" stroke-width="1"/>
    <!-- Aircraft 2 -->
    <ellipse cx="385" cy="395" rx="3" ry="10" fill="white" stroke="#888" stroke-width="0.5"/>
    <line x1="379" y1="393" x2="391" y2="393" stroke="#888" stroke-width="1"/>
    <!-- Aircraft 3 -->
    <ellipse cx="420" cy="395" rx="3" ry="10" fill="#e0e8f0" stroke="#888" stroke-width="0.5"/>
    <line x1="414" y1="393" x2="426" y2="393" stroke="#888" stroke-width="1"/>
    <!-- Aircraft 4 -->
    <ellipse cx="455" cy="395" rx="3" ry="10" fill="white" stroke="#888" stroke-width="0.5"/>
    <line x1="449" y1="393" x2="461" y2="393" stroke="#888" stroke-width="1"/>
  </g>
  <!-- Secondary taxiway / apron area -->
  <rect x="315" y="340" width="180" height="12" fill="#555" rx="1" opacity="0.4"/>
  <!-- Runway edge lights -->
  <g fill="#ffe066" opacity="0.5">
    <circle cx="50" cy="290" r="2"/>
    <circle cx="50" cy="320" r="2"/>
    <circle cx="750" cy="290" r="2"/>
    <circle cx="750" cy="320" r="2"/>
    <circle cx="150" cy="290" r="1.5"/>
    <circle cx="250" cy="290" r="1.5"/>
    <circle cx="350" cy="290" r="1.5"/>
    <circle cx="450" cy="290" r="1.5"/>
    <circle cx="550" cy="290" r="1.5"/>
    <circle cx="650" cy="290" r="1.5"/>
    <circle cx="150" cy="320" r="1.5"/>
    <circle cx="250" cy="320" r="1.5"/>
    <circle cx="450" cy="320" r="1.5"/>
    <circle cx="550" cy="320" r="1.5"/>
    <circle cx="650" cy="320" r="1.5"/>
  </g>
  <!-- Aircraft on approach (side view, small, distant) -->
  <g transform="translate(580,140) scale(0.6)" opacity="0.7">
    <polygon points="0,0 40,5 40,-5" fill="white" stroke="#aaa" stroke-width="0.5"/>
    <polygon points="12,-5 28,-18 30,-5" fill="white" stroke="#aaa" stroke-width="0.5"/>
    <polygon points="12,5 28,18 30,5" fill="white" stroke="#aaa" stroke-width="0.5"/>
    <polygon points="35,-2 40,-8 42,-2" fill="white" stroke="#aaa" stroke-width="0.5"/>
    <polygon points="35,2 40,8 42,2" fill="white" stroke="#aaa" stroke-width="0.5"/>
  </g>
  <!-- Trees near airport -->
  <g opacity="0.6">
    <circle cx="180" cy="260" r="6" fill="#3d7a2a"/>
    <circle cx="195" cy="258" r="5" fill="#4a8a35"/>
    <circle cx="210" cy="262" r="7" fill="#3d7a2a"/>
    <circle cx="560" cy="258" r="6" fill="#3d7a2a"/>
    <circle cx="575" cy="261" r="5" fill="#4a8a35"/>
    <circle cx="590" cy="257" r="7" fill="#3d7a2a"/>
    <circle cx="605" cy="262" r="5" fill="#4a8a35"/>
    <circle cx="140" cy="345" r="5" fill="#3d7a2a"/>
    <circle cx="155" cy="348" r="6" fill="#4a8a35"/>
    <circle cx="650" cy="350" r="6" fill="#3d7a2a"/>
    <circle cx="665" cy="347" r="5" fill="#4a8a35"/>
    <circle cx="680" cy="352" r="7" fill="#3d7a2a"/>
  </g>
  <!-- Warm daylight overlay -->
  <rect width="800" height="400" fill="#ffd97d" opacity="0.04"/>
</svg>