<svg xmlns="http://www.w3.org/2000/svg" viewBox="0 0 720 360">
  <defs>
    <linearGradient id="abg" x1="0%" y1="0%" x2="100%" y2="100%">
      <stop offset="0%" style="stop-color:#0d1b2a"/>
      <stop offset="100%" style="stop-color:#1b3a4b"/>
    </linearGradient>
  </defs>
  <rect width="720" height="360" fill="url(#abg)"/>
  <!-- Download grid pattern -->
  <g opacity="0.05">
    <line x1="0" y1="60" x2="720" y2="60" stroke="white" stroke-width="1"/>
    <line x1="0" y1="120" x2="720" y2="120" stroke="white" stroke-width="1"/>
    <line x1="0" y1="180" x2="720" y2="180" stroke="white" stroke-width="1"/>
    <line x1="0" y1="240" x2="720" y2="240" stroke="white" stroke-width="1"/>
    <line x1="0" y1="300" x2="720" y2="300" stroke="white" stroke-width="1"/>
  </g>
  <!-- Addon cards -->
  <!-- Card 1: Scenery -->
  <rect x="40" y="60" width="190" height="110" rx="10" fill="rgba(255,255,255,0.07)" stroke="rgba(255,255,255,0.1)" stroke-width="1"/>
  <rect x="55" y="80" width="40" height="40" rx="8" fill="rgba(81,207,102,0.2)"/>
  <text x="75" y="106" text-anchor="middle" font-family="Arial,sans-serif" font-size="20" fill="#51cf66">&#9968;</text>
  <text x="110" y="96" font-family="Arial,sans-serif" font-size="12" font-weight="bold" fill="white">Scenery</text>
  <text x="110" y="112" font-family="Arial,sans-serif" font-size="9" fill="rgba(255,255,255,0.5)">Airports &amp; landscapes</text>
  <rect x="55" y="135" width="80" height="20" rx="10" fill="rgba(81,207,102,0.2)"/>
  <text x="95" y="149" text-anchor="middle" font-family="Arial,sans-serif" font-size="9" font-weight="bold" fill="#51cf66">FREE</text>
  <!-- Card 2: Aircraft -->
  <rect x="265" y="60" width="190" height="110" rx="10" fill="rgba(255,255,255,0.07)" stroke="rgba(255,255,255,0.1)" stroke-width="1"/>
  <rect x="280" y="80" width="40" height="40" rx="8" fill="rgba(74,158,255,0.2)"/>
  <text x="300" y="106" text-anchor="middle" font-family="Arial,sans-serif" font-size="20" fill="#4a9eff">&#9992;</text>
  <text x="335" y="96" font-family="Arial,sans-serif" font-size="12" font-weight="bold" fill="white">Aircraft</text>
  <text x="335" y="112" font-family="Arial,sans-serif" font-size="9" fill="rgba(255,255,255,0.5)">Planes &amp; helicopters</text>
  <rect x="280" y="135" width="80" height="20" rx="10" fill="rgba(74,158,255,0.2)"/>
  <text x="320" y="149" text-anchor="middle" font-family="Arial,sans-serif" font-size="9" font-weight="bold" fill="#4a9eff">FREE</text>
  <!-- Card 3: Utilities -->
  <rect x="490" y="60" width="190" height="110" rx="10" fill="rgba(255,255,255,0.07)" stroke="rgba(255,255,255,0.1)" stroke-width="1"/>
  <rect x="505" y="80" width="40" height="40" rx="8" fill="rgba(255,212,59,0.2)"/>
  <text x="525" y="106" text-anchor="middle" font-family="Arial,sans-serif" font-size="20" fill="#ffd43b">&#9881;</text>
  <text x="560" y="96" font-family="Arial,sans-serif" font-size="12" font-weight="bold" fill="white">Utilities</text>
  <text x="560" y="112" font-family="Arial,sans-serif" font-size="9" fill="rgba(255,255,255,0.5)">Tools &amp; plugins</text>
  <rect x="505" y="135" width="80" height="20" rx="10" fill="rgba(255,212,59,0.2)"/>
  <text x="545" y="149" text-anchor="middle" font-family="Arial,sans-serif" font-size="9" font-weight="bold" fill="#ffd43b">FREE</text>
  <!-- Card 4: Liveries -->
  <rect x="40" y="200" width="190" height="110" rx="10" fill="rgba(255,255,255,0.07)" stroke="rgba(255,255,255,0.1)" stroke-width="1"/>
  <rect x="55" y="220" width="40" height="40" rx="8" fill="rgba(255,107,107,0.2)"/>
  <text x="75" y="246" text-anchor="middle" font-family="Arial,sans-serif" font-size="20" fill="#ff6b6b">&#127912;</text>
  <text x="110" y="236" font-family="Arial,sans-serif" font-size="12" font-weight="bold" fill="white">Liveries</text>
  <text x="110" y="252" font-family="Arial,sans-serif" font-size="9" fill="rgba(255,255,255,0.5)">Airline paint kits</text>
  <rect x="55" y="275" width="80" height="20" rx="10" fill="rgba(255,107,107,0.2)"/>
  <text x="95" y="289" text-anchor="middle" font-family="Arial,sans-serif" font-size="9" font-weight="bold" fill="#ff6b6b">FREE</text>
  <!-- Card 5: Weather -->
  <rect x="265" y="200" width="190" height="110" rx="10" fill="rgba(255,255,255,0.07)" stroke="rgba(255,255,255,0.1)" stroke-width="1"/>
  <rect x="280" y="220" width="40" height="40" rx="8" fill="rgba(160,120,255,0.2)"/>
  <text x="300" y="246" text-anchor="middle" font-family="Arial,sans-serif" font-size="20" fill="#a078ff">&#9729;</text>
  <text x="335" y="236" font-family="Arial,sans-serif" font-size="12" font-weight="bold" fill="white">Weather</text>
  <text x="335" y="252" font-family="Arial,sans-serif" font-size="9" fill="rgba(255,255,255,0.5)">Real-time engines</text>
  <rect x="280" y="275" width="80" height="20" rx="10" fill="rgba(160,120,255,0.2)"/>
  <text x="320" y="289" text-anchor="middle" font-family="Arial,sans-serif" font-size="9" font-weight="bold" fill="#a078ff">FREE</text>
  <!-- Card 6: Sounds -->
  <rect x="490" y="200" width="190" height="110" rx="10" fill="rgba(255,255,255,0.07)" stroke="rgba(255,255,255,0.1)" stroke-width="1"/>
  <rect x="505" y="220" width="40" height="40" rx="8" fill="rgba(255,169,77,0.2)"/>
  <text x="525" y="246" text-anchor="middle" font-family="Arial,sans-serif" font-size="20" fill="#ffa94d">&#9835;</text>
  <text x="560" y="236" font-family="Arial,sans-serif" font-size="12" font-weight="bold" fill="white">Sounds</text>
  <text x="560" y="252" font-family="Arial,sans-serif" font-size="9" fill="rgba(255,255,255,0.5)">Audio packs</text>
  <rect x="505" y="275" width="80" height="20" rx="10" fill="rgba(255,169,77,0.2)"/>
  <text x="545" y="289" text-anchor="middle" font-family="Arial,sans-serif" font-size="9" font-weight="bold" fill="#ffa94d">FREE</text>
</svg>
